<svg xmlns="http://www.w3.org/2000/svg" xmlns:xlink="http://www.w3.org/1999/xlink" viewBox="0 0 557.1 236.4" enable-background="new 0 0 557.1 236.4"><style>.st4{fill:#fff}.st8{fill:none}.st13{fill:#231815}</style><g id="圖層_4"><radialGradient id="SVGID_1_" cx="86.072" cy="53.022" r="180.657" gradientUnits="userSpaceOnUse"><stop offset=".118" stop-color="#00b8ee"/><stop offset=".517" stop-color="#004097"/><stop offset=".839" stop-color="#181878"/><stop offset="1" stop-color="#005bab"/></radialGradient><circle cx="118.1" cy="118.3" r="118.1" fill="url(#SVGID_1_)"/><defs><filter id="Adobe_OpacityMaskFilter" filterUnits="userSpaceOnUse" x="0" y=".1" width="236.3" height="236.3"><feColorMatrix values="-1 0 0 0 1 0 -1 0 0 1 0 0 -1 0 1 0 0 0 1 0" color-interpolation-filters="sRGB" result="source"/></filter></defs><mask maskUnits="userSpaceOnUse" x="0" y=".1" width="236.3" height="236.3" id="SVGID_2_"><g filter="url(#Adobe_OpacityMaskFilter)"><image width="242" height="241" xlink:href="CC66D2BEF0F7EE71.jpg" transform="translate(-2.851 -2.056)" overflow="visible"/></g></mask><g opacity=".7" mask="url(#SVGID_2_)"><circle cx="118.1" cy="118.3" r="118.1" fill="#1b274f"/></g><path class="st4" d="M118.1.1C183.3.1 236.2 53 236.2 118.2s-52.9 118.1-118.1 118.1S0 183.5 0 118.3 52.9.1 118.1.1m0-4.3c-32.7 0-63.4 12.7-86.6 35.9C8.4 54.8-4.3 85.6-4.3 118.3s12.7 63.4 35.9 86.6c23.1 23.1 53.9 35.9 86.6 35.9s63.4-12.7 86.6-35.9 35.9-53.9 35.9-86.6-12.7-63.4-35.9-86.6-54-35.9-86.7-35.9z"/></g><g id="圖層_2"><defs><circle id="SVGID_3_" cx="118.1" cy="118.1" r="118.1"/></defs><clipPath id="SVGID_4_"><use xlink:href="#SVGID_3_" overflow="visible"/></clipPath><g clip-path="url(#SVGID_4_)"><image width="160" height="170" xlink:href="CC66D2BEF0F7EE73.png" transform="translate(51.645 49.44)" overflow="visible" opacity=".5"/><path class="st4" d="M69 174.5c2.2-2.2 4-6.6 4-9.7v-20.3l-4 4-7.3 7.3c-2.2 2.2-4 6.6-4 9.7v20.3l4-4 7.3-7.3z"/><ellipse transform="rotate(-45.001 104.489 159.799)" class="st4" cx="104.5" cy="159.8" rx="10.2" ry="10.2"/><path class="st4" d="M113.9 197.2c1-1.9 1.7-4 2-6.2H94.3v-51.6h21.3v-9.3c0-6.9-6.2-6-6.2-6h-15v-15.3H116v-16c0-3.1-1.8-7.5-4-9.7L91 62.3c-2.2-2.2-5.8-2.2-8 0L62.1 83.2c-2.2 2.2-4 6.6-4 9.7v15.8l4-4L83 83.9c2.2-2.2 5.8-2.2 8 0l9.6 9.5h-17c-5.2 0-8.4 3.9-8.4 3.9L62 110.5h17v13.6H57.7v9.6s-.6 5.7 6 5.7H79V191H57.7s4.9 15.3 13.9 15.3h29.6c.9 0 1.7-.1 2.5-.3 3.7-1.3 6.9-3.8 9.1-7 .1-.1.1-.2.2-.3.2-.3.4-.6.6-1 .1-.1.2-.3.3-.5z"/><path class="st4" d="M179.2 191v-21h15.4v-56.1h-73.9v48.3s-.2 7.7 7.3 7.7h7.9v21H121c-.6 6-3.4 11.4-7.5 15.3h23.1c15.3 0 14.6-14.7 14.6-14.7V170h12.7v36.3h14.7c9.4 0 20.3-15.3 20.3-15.3h-19.7zm-21.7-31.4c-4.8 0-9.1-1.9-12.3-5H136l-.1-25.5h9.3c3.2-3.1 7.5-5 12.3-5s9.1 1.9 12.3 5h9.5v25.5h-9.6c-3.1 3.1-7.5 5-12.2 5zM127 108.8h67.6v-9.5c0-6.3-6.8-5.8-6.8-5.8h-4.7V78.2h11.5v-8.4s.4-6.9-7.4-6.9h-22V56H150v6.9h-29.3v10.2s-.2 5.1 6.5 5.1h5v15.3h-11.5v9.8c-.1-.1-.2 5.5 6.3 5.5zm20.4-30.6h20.4v15.3h-20.4V78.2z"/><linearGradient id="SVGID_5_" gradientUnits="userSpaceOnUse" x1="147.792" y1="132.583" x2="166.712" y2="151.503"><stop offset="0" stop-color="#20aee5"/><stop offset=".5" stop-color="#fcfdff"/><stop offset="1" stop-color="#20aee5"/></linearGradient><circle cx="157.3" cy="142" r="13.4" fill="url(#SVGID_5_)"/><linearGradient id="SVGID_6_" gradientUnits="userSpaceOnUse" x1="273.836" y1="-91.615" x2="286.772" y2="-78.679" gradientTransform="rotate(-90 332.373 89.974)"><stop offset="0" stop-color="#21ade5"/><stop offset=".5" stop-color="#fcfdff"/><stop offset="1" stop-color="#21ade5"/></linearGradient><circle cx="157.3" cy="142" r="9.1" fill="url(#SVGID_6_)" stroke="#1d2087"/><path class="st8" d="M154.4 137.6l1.9 2.8"/><circle class="st8" cx="154.4" cy="137.6" r="2.8"/><circle class="st8" cx="154.4" cy="137.6" r="3.4"/><path class="st8" d="M154.4 137.6v.3-.6.3h-.3.6-.3l14.8 6.7-14.8-6.7-14.8-6.7 14.8 6.7-6.7 14.8 6.7-14.8 6.7-14.8-6.7 14.8 1.8 2.8-1.8-2.8-1.8-2.9 1.8 2.9-2.8 1.8 2.8-1.8 2.8-1.9-2.8 1.9 12.6 8.5-12.6-8.5-12.6-8.5 12.6 8.5-8.5 12.6 8.5-12.6 8.5-12.6-8.5 12.6 11.5 7.5-11.5-7.5-11.5-7.5 11.5 7.5-7.5 11.5 7.5-11.5 7.5-11.5-7.5 11.5-4.3 10.6 4.3-10.6 4.3-10.6-4.3 10.6-10.6-4.3 10.6 4.3 10.6 4.3-10.6-4.3 5.6 15.7-5.6-15.7-5.6-15.7 5.6 15.7-15.7 5.6 15.7-5.6 15.7-5.6-15.7 5.6 1.1 4.1-1.1-4.1-1.1-4.2 1.1 4.2-4.1 1 4.1-1 4.1-1.1-4.1 1.1-.8 15.2.8-15.2.8-15.2-.8 15.2-15.2-.8 15.2.8 15.2.8-15.2-.8-1.8 7 1.8-7 1.8-7-1.8 7-7-1.9 7 1.9 7 1.8-7-1.8 11.1 11.8-11.1-11.8-11.1-11.8 11.1 11.8-11.8 11 11.8-11 11.8-11.1-11.8 11.1-2.8 10.8 2.8-10.8 2.8-10.8-2.8 10.8-10.8-2.8 10.8 2.8 10.8 2.8-10.8-2.8-4.3 11 4.3-11 4.3-11-4.3 11-11-4.3 11 4.3 11 4.3-11-4.3-2.9 10.2 2.9-10.2 2.9-10.2-2.9 10.2-10.2-3 10.2 3 10.2 2.9-10.2-2.9-.7 7.6.7-7.6.7-7.6-.7 7.6-7.6-.7 7.6.7 7.6.7"/><radialGradient id="SVGID_7_" cx="154.402" cy="137.584" r="6.84" gradientUnits="userSpaceOnUse"><stop offset="0" stop-color="#200000"/><stop offset=".73" stop-color="#9b4121"/><stop offset="1" stop-color="#200000"/></radialGradient><circle cx="154.4" cy="137.6" r="6.8" opacity=".15" fill="url(#SVGID_7_)"/><radialGradient id="SVGID_8_" cx="154.402" cy="137.584" r="3.42" gradientUnits="userSpaceOnUse"><stop offset=".15" stop-color="#fff"/><stop offset=".21" stop-color="#e4d2d2"/><stop offset=".291" stop-color="#c59b9c"/><stop offset=".361" stop-color="#ad7374"/><stop offset=".416" stop-color="#9f5b5c"/><stop offset=".45" stop-color="#9a5253"/><stop offset=".576" stop-color="#693132"/><stop offset=".696" stop-color="#411617"/><stop offset=".792" stop-color="#290606"/><stop offset=".85" stop-color="#200000"/><stop offset=".857" stop-color="#240201"/><stop offset=".865" stop-color="#310803"/><stop offset=".872" stop-color="#451108"/><stop offset=".88" stop-color="#621e0e"/><stop offset=".888" stop-color="#883016"/><stop offset=".895" stop-color="#b5441f"/><stop offset=".9" stop-color="#d55326"/><stop offset=".903" stop-color="#c64c23"/><stop offset=".915" stop-color="#9a381a"/><stop offset=".927" stop-color="#752712"/><stop offset=".94" stop-color="#56190b"/><stop offset=".953" stop-color="#3e0e06"/><stop offset=".966" stop-color="#2d0603"/><stop offset=".981" stop-color="#230101"/><stop offset="1" stop-color="#200000"/></radialGradient><circle cx="154.4" cy="137.6" r="3.4" opacity=".5" fill="url(#SVGID_8_)"/><radialGradient id="SVGID_9_" cx="154.402" cy="137.584" r="2.85" gradientUnits="userSpaceOnUse"><stop offset=".15" stop-color="#fff"/><stop offset=".282" stop-color="#c2c2c2"/><stop offset=".425" stop-color="#888"/><stop offset=".564" stop-color="#575757"/><stop offset=".694" stop-color="#313131"/><stop offset=".813" stop-color="#161616"/><stop offset=".919" stop-color="#060606"/><stop offset="1"/></radialGradient><circle cx="154.4" cy="137.6" r="2.8" fill="url(#SVGID_9_)"/><path opacity=".03" fill="none" stroke="#fff" stroke-width="2" stroke-miterlimit="10" d="M154.4 137.6v.3-.6.3h-.3.6-.3l14.8 6.7-14.8-6.7-14.8-6.7 14.8 6.7-6.7 14.8 6.7-14.8 6.7-14.8-6.7 14.8 1.8 2.8-1.8-2.8-1.8-2.9 1.8 2.9-2.8 1.8 2.8-1.8 2.8-1.9-2.8 1.9 12.6 8.5-12.6-8.5-12.6-8.5 12.6 8.5-8.5 12.6 8.5-12.6 8.5-12.6-8.5 12.6 11.5 7.5-11.5-7.5-11.5-7.5 11.5 7.5-7.5 11.5 7.5-11.5 7.5-11.5-7.5 11.5-4.3 10.6 4.3-10.6 4.3-10.6-4.3 10.6-10.6-4.3 10.6 4.3 10.6 4.3-10.6-4.3 5.6 15.7-5.6-15.7-5.6-15.7 5.6 15.7-15.7 5.6 15.7-5.6 15.7-5.6-15.7 5.6 1.1 4.1-1.1-4.1-1.1-4.2 1.1 4.2-4.1 1 4.1-1 4.1-1.1-4.1 1.1-.8 15.2.8-15.2.8-15.2-.8 15.2-15.2-.8 15.2.8 15.2.8-15.2-.8-1.8 7 1.8-7 1.8-7-1.8 7-7-1.9 7 1.9 7 1.8-7-1.8 11.1 11.8-11.1-11.8-11.1-11.8 11.1 11.8-11.8 11 11.8-11 11.8-11.1-11.8 11.1-2.8 10.8 2.8-10.8 2.8-10.8-2.8 10.8-10.8-2.8 10.8 2.8 10.8 2.8-10.8-2.8-4.3 11 4.3-11 4.3-11-4.3 11-11-4.3 11 4.3 11 4.3-11-4.3-2.9 10.2 2.9-10.2 2.9-10.2-2.9 10.2-10.2-3 10.2 3 10.2 2.9-10.2-2.9-.7 7.6.7-7.6.7-7.6-.7 7.6-7.6-.7 7.6.7 7.6.7"/></g></g><g id="圖層_3"><path class="st13" d="M316.2 167.4h39.7v7.5h-23.5v7.9h22.1v7.5h-22.1v9H357v7.5h-40.7v-39.4zm48.1 0h23.9c16 0 22.8 4.8 22.8 18.5 0 14.3-3.2 21-24.4 21h-22.3v-39.5zm16.1 32.7h4.3c7.5 0 10.1-1.7 10.1-13.6 0-9.6-1.3-12.2-9.9-12.2h-4.5v25.8zm39.3-32.7h16.1V207h-16.1v-39.6zm39.1 0H479l17.1 39.5h-16.7l-2.5-7.5h-16.4l-2.4 7.5h-16.7l17.4-39.5zm9.8 7.2h-.2l-5.7 17.6h11.7l-5.8-17.6z"/><path d="M317.1 115.4h16.1v39.5h-16.1v-39.5zm26.4 0h27.1c13.7 0 18.5 4.9 18.5 10.3 0 5.8-4 8.6-11.5 9.6v.1c10.3.8 10.9 4.5 11.1 9.9.3 7.8.8 8.6 3.1 9.1v.5h-17.4c-1.3-1.3-1.7-3.5-1.7-8 0-6.9-1.6-8.3-6.7-8.3h-6.2v16.3h-16.1v-39.5zm16.2 16.7h5c6.5 0 8.3-2.8 8.3-5.1 0-3-1.9-5-8.4-5h-4.9v10.1zm39-16.7h27.1c13.7 0 18.5 4.9 18.5 10.3 0 5.8-4 8.6-11.5 9.6v.1c10.3.8 10.9 4.5 11 9.9.3 7.8.8 8.6 3.1 9.1v.5h-17.4c-1.2-1.3-1.7-3.5-1.7-8 0-6.9-1.6-8.3-6.7-8.3h-6.2v16.3h-16.1v-39.5zm16.1 16.7h5c6.5 0 8.3-2.8 8.3-5.1 0-3-1.9-5-8.4-5h-4.9v10.1zm61.6 23.6c-21.2 0-24.1-8-24.1-20.5s2.9-20.5 24.1-20.5c22.9 0 24.1 9.6 24.1 20.5s-1.2 20.5-24.1 20.5zm-.1-6.2c6.5 0 7.5-3.5 7.5-14.3 0-10.9-1-14.3-7.5-14.3-6.3 0-7.3 3.5-7.3 14.3s1 14.3 7.3 14.3zm32.7-34.1h27.1c13.7 0 18.5 4.9 18.5 10.3 0 5.8-4 8.6-11.5 9.6v.1c10.3.8 10.9 4.5 11.1 9.9.3 7.8.8 8.6 3.1 9.1v.5h-17.4c-1.2-1.3-1.7-3.5-1.7-8 0-6.9-1.6-8.3-6.7-8.3h-6.2v16.3H509v-39.5zm16.1 16.7h5c6.5 0 8.3-2.8 8.3-5.1 0-3-1.9-5-8.4-5h-4.9v10.1zm-267.2 29.2l-4-25.7h-.2v25.7h-14.4v-46H263l6.5 46h-11.6zm30.2 0v-25.7h-.1l-3.8 25.7h-10.6l6.2-46h23.4v46h-15.1z" fill="#004ea2"/><path class="st13" d="M239.3 161.3h14.4V207h-14.4v-45.7zM265 207l-7.1-45.7h11.5l2 14.2h.2l1.9-14.2h10.6l-6.7 45.7H265zm23.1-45.7h15V207h-15v-45.7z"/></g></svg>