<svg height="19" viewBox="0 0 19 19" width="19" xmlns="http://www.w3.org/2000/svg"><mask id="a" fill="#fff"><path d="M0 .389h18.838v18.434H0z" fill-rule="evenodd"/></mask><g fill="#fff" fill-rule="evenodd"><path d="M5.76 13.542h1.201V5.161H5.76zm3.673-8.381h3.72V6.23h-2.627v2.117c.084-.008.168-.011.257-.011.813 0 1.48.247 2.004.74.524.494.786 1.122.786 1.887 0 .789-.259 1.429-.777 1.922-.518.494-1.189.741-2.013.741-.68 0-1.34-.163-1.98-.492V11.9c.605.393 1.194.588 1.77.588.504 0 .927-.147 1.27-.44.34-.294.511-.656.511-1.084 0-.444-.186-.815-.556-1.113-.373-.298-.837-.447-1.393-.447-.475 0-.8.04-.972.12z"/><path d="M.633 9.136L0 5.516l1.174.429a9.14 9.14 0 014.563-4.697 9.176 9.176 0 017.047-.295 9.154 9.154 0 015.192 4.774 9.152 9.152 0 01.296 7.046 9.224 9.224 0 01-7.02 5.903 9.17 9.17 0 01-4.8-.415l.422-1.154c4.134 1.513 8.732-.619 10.245-4.755a7.932 7.932 0 00-.257-6.107 7.937 7.937 0 00-4.499-4.138 7.94 7.94 0 00-6.108.257 7.912 7.912 0 00-3.927 4.003l1.124.412z" mask="url(#a)" transform="translate(0 -.212)"/></g></svg>