<svg height="19" viewBox="0 0 19 19" width="19" xmlns="http://www.w3.org/2000/svg"><mask id="a" fill="#fff"><path d="M0 .389h18.837v18.434H0z" fill-rule="evenodd"/></mask><mask id="b" fill="#fff"><path d="M0 .33h16.012V16H0z" fill-rule="evenodd"/></mask><g fill="none" fill-rule="evenodd"><path d="M5.76 13.542h1.2V5.161h-1.2zm3.674-8.381h3.718V6.23h-2.627v2.117c.084-.008.17-.011.258-.011.812 0 1.48.247 2.005.74.523.494.786 1.122.786 1.887 0 .789-.26 1.429-.778 1.922-.518.494-1.188.741-2.013.741-.68 0-1.34-.163-1.98-.492V11.9c.605.393 1.194.588 1.77.588.504 0 .928-.147 1.269-.44.342-.294.513-.656.513-1.084 0-.444-.186-.815-.558-1.113-.372-.298-.835-.447-1.392-.447-.476 0-.8.04-.971.12z" fill="#fff"/><path d="M18.205 9.136l.632-3.62-1.173.429A9.147 9.147 0 0013.1 1.248 9.173 9.173 0 006.054.953 9.154 9.154 0 00.862 5.727a9.147 9.147 0 00-.295 7.046 9.225 9.225 0 007.018 5.903 9.175 9.175 0 004.802-.415l-.423-1.154C7.83 18.62 3.232 16.488 1.72 12.352a7.932 7.932 0 01.256-6.107 7.933 7.933 0 014.499-4.138 7.94 7.94 0 016.108.257 7.916 7.916 0 013.927 4.003l-1.123.412z" fill="#fff" mask="url(#a)" transform="translate(0 -.212)"/><g mask="url(#a)" transform="translate(0 -.212)"><g fill="#000"><path d="M-132.104 15.573h1.021V8.449h-1.021zm3.122-7.123h3.162v.907h-2.233v1.8c.071-.007.143-.01.218-.01.691 0 1.258.21 1.704.63.445.42.668.953.668 1.603 0 .671-.22 1.215-.66 1.634-.44.42-1.01.63-1.712.63a3.64 3.64 0 01-1.682-.418v-1.05c.514.334 1.014.5 1.504.5.428 0 .788-.125 1.08-.375.29-.249.434-.557.434-.92 0-.378-.158-.693-.473-.947-.317-.253-.71-.38-1.184-.38-.404 0-.68.034-.826.103z"/><path d="M.538 7.765L0 4.688l.998.365a7.77 7.77 0 013.879-3.992 7.8 7.8 0 015.99-.25c1.965.718 3.532 2.16 4.413 4.057s.97 4.025.25 5.99a7.84 7.84 0 01-5.966 5.016 7.795 7.795 0 01-4.08-.352l.359-.98c3.514 1.285 7.422-.527 8.708-4.043.623-1.703.546-3.546-.218-5.19S12.21 2.413 10.509 1.79a6.749 6.749 0 00-5.192.218 6.725 6.725 0 00-3.338 3.403l.955.35z" mask="url(#b)" transform="translate(-137 3.882)"/></g></g></g></svg>