<svg xmlns="http://www.w3.org/2000/svg" width="23.669" height="23.526" viewBox="0 0 23.669 23.526"><defs><style>.a{fill:#6f6f6f;stroke:#707070;stroke-width:.5px}</style></defs><path class="a" d="M14.194 21.493c-.171.042-.345.08-.517.112a.832.832 0 00.3 1.636c.206-.038.413-.083.616-.134a.832.832 0 00-.4-1.614zm7.12-12.806a.832.832 0 001.579-.523c-.066-.2-.139-.4-.216-.592a.832.832 0 10-1.544.617c.066.164.127.331.181.498zm-4.017 11.619c-.147.1-.3.191-.451.278a.832.832 0 10.831 1.441c.181-.1.362-.216.536-.331a.832.832 0 00-.917-1.388zm6.117-8.869a.832.832 0 10-1.662.065c.007.175.009.353 0 .529a.832.832 0 101.663.037 12.07 12.07 0 00-.001-.631zm-2.235 6.254a.831.831 0 00-1.164.166c-.106.141-.217.28-.331.413a.832.832 0 00.094 1.172c.02.017.04.032.061.047a.832.832 0 001.111-.141c.136-.16.268-.326.395-.494a.832.832 0 00-.166-1.163zm1.223-3.383a.832.832 0 00-1.042.545 8.959 8.959 0 01-.174.5.832.832 0 001.554.592c.075-.2.144-.4.207-.6a.832.832 0 00-.545-1.037zm-12.133 7.106a9.881 9.881 0 01-2.427-.759l-.027-.014a10.773 10.773 0 01-.538-.268 10.12 10.12 0 01-.941-.579A9.633 9.633 0 013.951 6.25a9.758 9.758 0 012.424-2.375l.034-.023a10.02 10.02 0 0111.084-.088l-.742 1.05c-.206.293-.079.506.281.474l3.211-.283a.522.522 0 00.479-.681l-.86-3.059c-.1-.343-.344-.384-.549-.091l-.741 1.054A11.834 11.834 0 0010.009.436q-.454.077-.9.188h-.002l-.034.009a11.678 11.678 0 00-6.469 4.27c-.014.016-.028.031-.04.049a13.012 13.012 0 00-.409.581l-.027.045a11.347 11.347 0 00-1.864 6.771v.024a10.767 10.767 0 00.162 1.444 11.435 11.435 0 003.293 6.233l.012.012a11.874 11.874 0 006.2 3.173.945.945 0 001.1-.752.933.933 0 00-.762-1.069z"/><path class="a" d="M11.758 4.79a.673.673 0 00-.673.673v6.7l6.131 3.169a.675.675 0 00.618-1.2l-5.4-2.793V5.461a.673.673 0 00-.676-.671z"/></svg>