<svg xmlns="http://www.w3.org/2000/svg" width="25" height="25" viewBox="0 0 25 25"><defs><style>.a{fill:#cfcfcf}</style></defs><path class="a" d="M24.55 12.5A12.05 12.05 0 1 1 12.5.45 12.056 12.056 0 0 1 24.55 12.5z"/><path class="a" d="M0 12.5A12.5 12.5 0 1 1 12.5 25 12.5 12.5 0 0 1 0 12.5zm.95 0A11.55 11.55 0 1 0 12.5.95 11.555 11.555 0 0 0 .95 12.5z"/><path d="M10 18.4a.427.427 0 0 1 0-.65l5.2-5.25L10 7.25a.46.46 0 1 1 .65-.65l5.3 5.3a.785.785 0 0 1 0 1.1l-5.3 5.4a.454.454 0 0 1-.35.15c-.15 0-.2-.1-.3-.15z" fill="#fff"/></svg>