<svg viewBox="-215.5 312.5 177 177" xmlns="http://www.w3.org/2000/svg"><path d="M-108.6 480.3c-.6-4-4.3-6.8-8.3-6.3-3.3.5-6.6.7-10 .7s-6.8-.2-10-.7c-4-.6-7.8 2.2-8.3 6.3-.1.4-.1.7-.1 1 0 3.6 2.6 6.8 6.3 7.3 3.9.6 8 .8 12.1.8s8.1-.3 12.1-.8c3.9-.5 6.7-4.3 6.2-8.3z"/><path d="M-127 312.5c-48.8 0-88.5 39.7-88.5 88.5 0 33.4 18.5 63.6 48.3 78.8 3.6 1.9 8.1.4 9.9-3.2s.4-8.1-3.2-9.9c-24.8-12.7-40.2-37.9-40.2-65.7 0-40.7 33.1-73.8 73.8-73.8s73.8 33.1 73.8 73.8c0 27.8-15.4 53-40.2 65.7-3.6 1.9-5.1 6.3-3.2 9.9s6.3 5.1 9.9 3.2c29.8-15.2 48.3-45.4 48.3-78.8-.2-48.8-39.9-88.5-88.7-88.5z"/><path d="M-92.3 384.1c2.9-2.9 2.9-7.6 0-10.4l-29.5-29.5c-2.9-2.9-7.6-2.9-10.4 0l-29.5 29.5c-1.4 1.4-2.2 3.3-2.2 5.2s.7 3.8 2.2 5.2c2.9 2.9 7.6 2.9 10.4 0l16.9-16.9v85.4c0 4.1 3.3 7.4 7.4 7.4s7.4-3.3 7.4-7.4v-85.5l16.9 16.9c2.9 3 7.5 3 10.4.1z"/></svg>